<svg width="1200" height="720" viewBox="0 0 1200 720" fill="none" xmlns="http://www.w3.org/2000/svg">
  <defs>
    <linearGradient id="g1" x1="80" y1="40" x2="1120" y2="680" gradientUnits="userSpaceOnUse">
      <stop stop-color="#E5F5EE"/>
      <stop offset="1" stop-color="#F9F3DF"/>
    </linearGradient>
    <linearGradient id="g2" x1="190" y1="120" x2="950" y2="620" gradientUnits="userSpaceOnUse">
      <stop stop-color="#10A873"/>
      <stop offset="1" stop-color="#0A8C63"/>
    </linearGradient>
  </defs>
  <rect x="0" y="0" width="1200" height="720" rx="36" fill="url(#g1)"/>
  <circle cx="1040" cy="124" r="92" fill="#D8EEE3"/>
  <circle cx="170" cy="600" r="120" fill="#F0E7C9"/>

  <rect x="120" y="128" width="960" height="472" rx="28" fill="white" stroke="#D2E3DB" stroke-width="4"/>
  <rect x="160" y="172" width="280" height="24" rx="12" fill="#D9EFE5"/>
  <rect x="160" y="216" width="420" height="18" rx="9" fill="#EAF4EF"/>

  <rect x="160" y="280" width="640" height="280" rx="20" fill="#F7FBF9" stroke="#D8E7E1" stroke-width="3"/>
  <rect x="188" y="316" width="190" height="110" rx="14" fill="url(#g2)"/>
  <rect x="404" y="316" width="368" height="22" rx="11" fill="#D6E9E1"/>
  <rect x="404" y="352" width="328" height="16" rx="8" fill="#E3EFE9"/>
  <rect x="404" y="380" width="294" height="16" rx="8" fill="#E3EFE9"/>

  <rect x="188" y="454" width="584" height="18" rx="9" fill="#E3EFE9"/>
  <rect x="188" y="486" width="520" height="18" rx="9" fill="#E3EFE9"/>

  <rect x="836" y="280" width="204" height="280" rx="20" fill="#F9F2DD" stroke="#EBDDBA" stroke-width="3"/>
  <rect x="868" y="320" width="140" height="140" rx="18" fill="#0A8C63"/>
  <path d="M937 348L901 412L937 434L973 412L937 348Z" fill="#F7F9F8"/>
  <circle cx="937" cy="392" r="12" fill="#0A8C63"/>

  <rect x="868" y="478" width="140" height="14" rx="7" fill="#DCCFA9"/>
  <rect x="868" y="506" width="112" height="14" rx="7" fill="#E8DCBA"/>
</svg>
